<?xml version="1.0" encoding="UTF-8"?>
<svg id="Layer_1" data-name="Layer 1" xmlns="http://www.w3.org/2000/svg" viewBox="0 0 24 24">
  <defs>
    <style>
      .cls-1 {
        fill: #000;
        stroke-width: 0px;
      }
    </style>
  </defs>
  <path class="cls-1" d="M3.29,15.9c.39.39,1.02.39,1.41,0s.39-1.02,0-1.41l-1.52-1.52h17.63l-1.52,1.52c-.39.39-.39,1.02,0,1.41s1.02.39,1.41,0l2.86-2.86c.28-.28.43-.65.43-1.04s-.15-.76-.43-1.04l-2.86-2.86c-.39-.39-1.02-.39-1.41,0s-.39,1.02,0,1.41l1.45,1.45H3.26l1.45-1.45c.39-.39.39-1.02,0-1.41s-1.02-.39-1.41,0L.43,10.96C.15,11.24,0,11.61,0,12s.15.76.43,1.04l2.86,2.86Z"/>
</svg>