<?xml version="1.0" encoding="UTF-8"?>
<svg id="Head-Mounted-Device--Streamline-Outlined-Material" xmlns="http://www.w3.org/2000/svg" viewBox="0 0 50 50">
  <defs>
    <style>
      .cls-1 {
        fill: #0092ff;
        stroke-width: 0px;
      }
    </style>
  </defs>
  <path class="cls-1" d="M43.07,18.58v17.57c-.02.05-.05.1-.06.16-.4,2.28-2.26,3.86-4.57,3.86-2.7,0-5.41.01-8.11,0-1.58,0-2.76-.74-3.51-2.14-.24-.46-.46-.92-.7-1.38-.23-.44-.59-.7-1.1-.7-.52,0-.89.25-1.13.71-.2.4-.4.8-.6,1.2-.77,1.55-2.02,2.33-3.75,2.32-2.61,0-5.22,0-7.83,0-2.79,0-4.77-1.99-4.77-4.78,0-5.28,0-10.56,0-15.84,0-.4.02-.8.06-1.2.46-4.74,4.52-8.49,9.28-8.52,5.8-.03,11.59-.03,17.39,0,4.2.02,7.92,2.9,9.03,6.95.16.59.24,1.19.36,1.79ZM40.95,24.67c0-.16,0-.25,0-.34,0-1.65,0-3.29,0-4.94-.02-4.16-3.29-7.43-7.44-7.44-5.67-.01-11.34-.01-17.01,0-4.17,0-7.44,3.29-7.45,7.47,0,1.63,0,3.27,0,4.9,0,.1.01.2.02.34.98-.64,2.03-.73,3.11-.73,8.62.01,17.24.01,25.86,0,1.01,0,1.96.15,2.9.73ZM25.02,26.06c-4.48,0-8.96,0-13.44,0-1.45,0-2.53,1.07-2.53,2.51,0,2.33,0,4.66,0,6.98,0,1.42,1.08,2.49,2.51,2.5,2.69,0,5.38,0,8.08,0,.78,0,1.35-.35,1.7-1.04.23-.46.45-.93.7-1.38.63-1.16,1.62-1.79,2.94-1.8,1.34,0,2.34.62,2.98,1.79.23.41.44.83.63,1.26.37.82,1,1.19,1.9,1.18,2.6-.02,5.2,0,7.8,0,1.63,0,2.66-1.03,2.66-2.67,0-2.21,0-4.42,0-6.63,0-1.68-1.02-2.7-2.7-2.7-4.41,0-8.82,0-13.23,0Z"/>
</svg>