<svg xmlns="http://www.w3.org/2000/svg" fill="none" viewBox="0 0 50 50" id="Head-Mounted-Device--Streamline-Outlined-Material" height="50" width="50">
  <desc>
    Head Mounted Device Streamline Icon: https://streamlinehq.com
  </desc>
  <path fill="#0092ff" d="M15.416666666666668 37.5c-2.2221875000000004 0 -4.1059375000000005 -0.7898958333333334 -5.651041666666667 -2.369791666666667C8.220489583333334 33.550312500000004 7.447916666666668 31.63197916666667 7.447916666666668 29.375v-8.906250000000002c0 -1.7156250000000002 0.5208333333333334 -3.2208333333333337 1.5625 -4.515625 1.0416666666666667 -1.2951041666666667 2.3958333333333335 -2.0989583333333335 4.0625 -2.4114583333333335 1.9791666666666667 -0.3819791666666667 3.9581250000000003 -0.6510416666666667 5.936979166666666 -0.8072916666666667 1.9788541666666668 -0.15625 3.9753125000000002 -0.23437500000000003 5.989583333333334 -0.23437500000000003 2.0145833333333334 0 4.020104166666667 0.078125 6.016666666666667 0.23437500000000003 1.9965625000000002 0.15625 3.9841666666666673 0.42531250000000004 5.963020833333334 0.8072916666666667 1.666666666666667 0.3125 3.0208333333333335 1.1197916666666667 4.0625 2.4218750000000004 1.0416666666666667 1.3020833333333335 1.5625 2.803854166666667 1.5625 4.505208333333334v8.906250000000002c0 2.256979166666667 -0.7726041666666668 4.1753125 -2.3177083333333335 5.755208333333334C38.74135416666667 36.71010416666667 36.85760416666667 37.5 34.63541666666667 37.5h-2.1875000000000004c-0.42812500000000003 0 -0.8564583333333334 -0.0346875 -1.2848958333333336 -0.10416666666666669 -0.42812500000000003 -0.06947916666666666 -0.833125 -0.17364583333333333 -1.2151041666666669 -0.3125l-3.385416666666667 -1.1458333333333335c-0.4916666666666667 -0.17364583333333333 -1.0038541666666667 -0.2604166666666667 -1.5364583333333335 -0.2604166666666667 -0.5326041666666667 0 -1.0447916666666666 0.08677083333333334 -1.5364583333333335 0.2604166666666667l-3.385416666666667 1.1458333333333335c-0.41666666666666674 0.13885416666666667 -0.8333333333333335 0.24302083333333335 -1.25 0.3125 -0.41666666666666674 0.06947916666666666 -0.855 0.10416666666666669 -1.3151041666666667 0.10416666666666669H15.416666666666668Zm0 -3.125h2.1354166666666665c0.26739583333333333 0 0.5252083333333334 -0.02604166666666667 0.7734375000000001 -0.078125 0.2482291666666667 -0.05208333333333334 0.5112500000000001 -0.1128125 0.7890625 -0.18229166666666666 1.0069791666666668 -0.32322916666666673 1.9878125000000002 -0.6645833333333334 2.942708333333334 -1.0239583333333333 0.9548958333333334 -0.3590625 1.9486458333333334 -0.5385416666666667 2.98125 -0.5385416666666667 1.0326041666666668 0 2.0309375000000003 0.18229166666666666 2.994791666666667 0.5468750000000001 0.9638541666666668 0.3645833333333333 1.9319791666666668 0.7031250000000001 2.904166666666667 1.015625 0.24302083333333335 0.06947916666666666 0.48875 0.13020833333333334 0.7369791666666667 0.18229166666666666 0.2482291666666667 0.05208333333333334 0.5060416666666667 0.078125 0.7734375000000001 0.078125h2.1875000000000004c1.3541666666666667 0 2.5 -0.4947916666666667 3.4375 -1.4843750000000002 0.9375000000000001 -0.9895833333333334 1.4062500000000002 -2.1614583333333335 1.4062500000000002 -3.5156250000000004v-8.906250000000002c0 -0.9375000000000001 -0.28645833333333337 -1.7708333333333335 -0.859375 -2.5 -0.5729166666666667 -0.7291666666666666 -1.3107291666666667 -1.1805208333333335 -2.213541666666667 -1.3541666666666667 -1.8750000000000002 -0.3819791666666667 -3.7673958333333335 -0.6423958333333334 -5.677083333333334 -0.78125 -1.9096875 -0.13885416666666667 -3.819479166666667 -0.20833333333333337 -5.729166666666667 -0.20833333333333337s-3.810729166666667 0.06947916666666666 -5.703125 0.20833333333333337c-1.8923958333333335 0.13885416666666667 -3.776041666666667 0.39927083333333335 -5.651041666666667 0.78125 -0.9028125000000001 0.17364583333333333 -1.640625 0.625 -2.213541666666667 1.3541666666666667 -0.5729166666666667 0.7291666666666666 -0.859375 1.5625 -0.859375 2.5v8.906250000000002c0 1.3541666666666667 0.46875000000000006 2.5260416666666665 1.4062500000000002 3.5156250000000004 0.9375000000000001 0.9895833333333334 2.0833333333333335 1.4843750000000002 3.4375 1.4843750000000002ZM2.0833333333333335 29.375v-8.906250000000002h2.0833333333333335v8.906250000000002H2.0833333333333335Zm43.75 0v-8.906250000000002h2.0833333333333335v8.906250000000002h-2.0833333333333335Z" stroke-width="1.0417"></path>
</svg>