<?xml version="1.0" encoding="UTF-8"?>
<svg id="Head-Mounted-Device--Streamline-Outlined-Material" xmlns="http://www.w3.org/2000/svg" viewBox="0 0 50 50">
  <defs>
    <style>
      .cls-1 {
        fill: #0092ff;
        stroke-width: 0px;
      }
    </style>
  </defs>
  <path class="cls-1" d="M34.33,8.75c.39.08.79.15,1.17.25,3.06.83,5.22,3.57,5.23,6.74.02,8.15,0,16.3,0,24.45,0,.61-.41,1.04-.96,1.04-.56,0-.94-.43-.94-1.05,0-8.09,0-16.18,0-24.26,0-2.4-1.52-4.44-3.76-5.06-3.32-.93-6.56,1.53-6.57,5-.01,6.07,0,12.14,0,18.21,0,2.05-.7,3.82-2.21,5.21-2.07,1.92-4.51,2.47-7.17,1.55-2.61-.9-4.16-2.81-4.66-5.53-.08-.43-.1-.88-.1-1.33-.01-1.86,0-3.72,0-5.58,0-.12,0-.25,0-.41-.36,0-.68,0-1.01,0-.64,0-1.03-.39-1.03-1.03,0-.89,0-1.78,0-2.66,0-.11,0-.23,0-.33-.35-.07-.68-.1-.98-.2-1.22-.38-2.06-1.51-2.07-2.79-.01-2.04,0-4.08,0-6.12,0-.58.39-.97.97-1,.34-.01.68,0,1.06,0,0-.13,0-.24,0-.35,0-1.15.02-2.31,0-3.46-.02-.59.16-1.02.7-1.28h.51c.54.24.73.66.71,1.24-.03,1.16,0,2.32,0,3.49,0,.11,0,.22,0,.34h4.22c0-.13,0-.25,0-.36,0-1.16.02-2.33,0-3.49-.01-.59.18-1,.73-1.23h.44c.56.22.75.64.74,1.22-.02,1.08,0,2.16,0,3.24,0,.2,0,.4,0,.63.36,0,.68,0,1.01,0,.62.01,1.03.39,1.03,1,0,2.03.03,4.06,0,6.09-.02,1.43-.94,2.54-2.29,2.88-.24.06-.49.08-.77.13,0,.12,0,.24,0,.35,0,.89,0,1.78,0,2.66,0,.65-.39,1.02-1.03,1.02-.32,0-.65,0-.99,0,0,.09-.02.14-.02.19,0,2.04-.04,4.08.01,6.12.07,2.79,2.3,5,5.03,5.04,2.93.05,5.27-2.23,5.29-5.16.01-1.96,0-3.91,0-5.87,0-4.14,0-8.29,0-12.43,0-3.04,1.82-5.65,4.66-6.68.56-.2,1.16-.29,1.74-.43.44,0,.89,0,1.33,0ZM11.17,15.76v.34c0,1.54,0,3.09,0,4.63,0,.86.42,1.28,1.28,1.28,1.9,0,3.8,0,5.71,0,.88,0,1.3-.42,1.3-1.3,0-1.53,0-3.06,0-4.6,0-.11,0-.22-.02-.35h-8.28ZM14.25,23.92v2.13h2.13v-2.13h-2.13Z"/>
</svg>