<svg xmlns="http://www.w3.org/2000/svg" fill="none" viewBox="0 0 50 50" id="Battery-Charging-50--Streamline-Outlined-Material" height="50" width="50">
  <desc>
    Battery Charging 50 Streamline Icon: https://streamlinehq.com
  </desc>
  <path fill="#0092ff" d="M34.375 45.46875V39.583333333333336h-4.166666666666667l6.25 -10V35.41666666666667h4.166666666666667l-6.25 10.052083333333334ZM16.145833333333336 45.833333333333336c-0.4513541666666667 0 -0.8246875 -0.14760416666666668 -1.1197916666666667 -0.44270833333333337S14.583333333333334 44.722187500000004 14.583333333333334 44.270833333333336V9.0625c0 -0.4513854166666667 0.14760416666666668 -0.8246562500000001 0.44270833333333337 -1.1197916666666667 0.29510416666666667 -0.2951354166666667 0.6684375000000001 -0.44270833333333337 1.1197916666666667 -0.44270833333333337H20.833333333333336V4.166666666666667h8.333333333333334v3.333333333333334h4.6875c0.4513541666666667 0 0.8246875 0.14757291666666666 1.1197916666666667 0.44270833333333337 0.29510416666666667 0.2951354166666667 0.44270833333333337 0.66840625 0.44270833333333337 1.1197916666666667v17.34375c-0.5555208333333334 0 -1.0937500000000002 0.0346875 -1.6145833333333335 0.10416666666666669 -0.5208333333333334 0.06947916666666666 -1.0242708333333335 0.1909375 -1.5104166666666667 0.3645833333333333V10.625H17.708333333333336v19.947916666666668h9.0625c-0.7638541666666667 0.9721875000000001 -1.3628125000000002 2.0486458333333335 -1.7968750000000002 3.229166666666667 -0.4340625000000001 1.1805208333333335 -0.6510416666666667 2.4305208333333335 -0.6510416666666667 3.7500000000000004 0 1.666666666666667 0.3385416666666667 3.2117708333333335 1.015625 4.635416666666667 0.6770833333333334 1.4236458333333335 1.5885416666666667 2.638854166666667 2.734375 3.6458333333333335H16.145833333333336Z" stroke-width="1.0417"></path>
</svg>