<?xml version="1.0" encoding="UTF-8"?>
<svg id="Capa_1" data-name="Capa 1" xmlns="http://www.w3.org/2000/svg" viewBox="0 0 41.42 48.02">
  <defs>
    <style>
      .cls-1 {
        fill: #0092ff;
        stroke-width: 0px;
      }
    </style>
  </defs>
  <path class="cls-1" d="M26.74.02c1.46,1.78,1.49,4.05,1.81,6.13.82,5.3,2.34,9.77,7.88,12.27,4.03,1.82,5.38,5.74,4.57,10.12-.76,4.08-3.75,6.16-7.38,7.31-1.45.46-3.8,1.23-4.42-.7-.81-2.54,1.9-1.95,3.26-2.47,2.57-.99,4.92-2.23,5.29-5.33.34-2.78-.8-5.06-3.26-6.2C25.15,16.85,25.25,8.32,24.74.02h2Z"/>
  <path class="cls-1" d="M16.74.02c-.49,8.31-.44,16.83-9.75,21.15-2.46,1.14-3.6,3.41-3.26,6.2.38,3.11,2.73,4.34,5.3,5.33,1.35.52,4.07-.08,3.25,2.47-.62,1.92-2.96,1.15-4.42.7-3.45-1.08-6.34-3.04-7.26-6.84-.89-3.67-.44-7.78,2.9-9.35,7.7-3.61,9.07-10.3,10.23-17.43.13-.78.67-1.48,1.02-2.22h2Z"/>
  <path class="cls-1" d="M8.74,48.02c-.5-4.26,3.77-5.64,5.46-8.61.67-1.18,1.88.81,1.78,2.24-.2,2.92-3.01,4.12-4.24,6.37h-3Z"/>
  <path class="cls-1" d="M29.74,48.02c-1.24-2.24-4.03-3.45-4.24-6.37-.1-1.43,1.11-3.42,1.77-2.24,1.69,2.97,5.94,4.37,5.47,8.61h-3Z"/>
  <path class="cls-1" d="M12.61,26.07c2.82.43,4.44,2.15,5.64,4.51,1.68,3.32,3.6,3.18,5.23,0,1.6-3.12,3.77-5.05,7.49-4.31,1.01.2,1.96.76,1.86,1.97-.1,1.18-.92,1.82-2.09,1.51-2.64-.71-3.39,1.16-4.47,2.9-3.37,5.42-7.43,5.31-10.93-.29-.92-1.48-1.72-2.87-3.74-2.69-1.35.12-3.06.35-2.84-1.61.25-2.22,2.33-1.87,3.86-1.99Z"/>
</svg>