<?xml version="1.0" encoding="UTF-8"?>
<svg id="Head-Mounted-Device--Streamline-Outlined-Material" xmlns="http://www.w3.org/2000/svg" viewBox="0 0 50 50">
  <defs>
    <style>
      .cls-1 {
        fill: #0092ff;
        stroke-width: 0px;
      }
    </style>
  </defs>
  <path class="cls-1" d="M24.41,43.8c-.98-.15-1.84-.61-2.74-.98-.48-.2-1.05-.26-1.57-.25-2,.01-3.75-.6-5.21-1.99-2.27-2.17-2.83-5.54-1.32-8.29,1.49-2.7,2.85-5.46,3.88-8.37,1.31-3.67,2.16-7.44,2.49-11.32.06-.71.11-1.42.2-2.12.32-2.47,2.39-4.28,4.86-4.28,2.47,0,4.54,1.81,4.86,4.28.17,1.35.25,2.7.42,4.05.43,3.49,1.31,6.86,2.55,10.15.96,2.55,2.14,4.98,3.47,7.35,1.48,2.63,1.27,5.6-.56,7.87-1.39,1.72-3.21,2.62-5.42,2.64-1.02,0-1.94.2-2.85.66-.58.29-1.24.41-1.87.61h-1.17ZM31.93,28.33c-.24-.57-.48-1.08-.67-1.6-.1-.3-.27-.39-.56-.4-1.74-.07-3.47-.21-5.2-.21-2.08,0-4.15.13-6.23.22-.15,0-.37.08-.43.18-.27.57-.5,1.16-.77,1.81l-1.26,2.57c-.41.78-.85,1.54-1.25,2.33-.23.45-.39.93-.59,1.41.78.23,1.47.41,2.15.64,1.66.56,3.22,1.29,4.49,2.54.86.85,1.43,1.85,1.55,3.08,0,.09.09.2.17.24,1.1.6,2.22.6,3.32,0,.08-.04.16-.15.17-.24.13-1.41.85-2.5,1.89-3.4,1.34-1.16,2.93-1.84,4.59-2.37.54-.17,1.1-.31,1.69-.48-.14-.4-.24-.78-.42-1.12-.46-.9-.95-1.79-1.44-2.68l-1.21-2.53ZM21.71,16.78h6.58c-.2-2-.39-3.95-.59-5.89-.15-1.43-1.31-2.49-2.71-2.49-1.4,0-2.56,1.07-2.7,2.49-.2,1.94-.39,3.89-.59,5.89ZM28.76,19.01h-7.53c-.48,1.68-.95,3.36-1.44,5.08,3.49-.26,6.96-.25,10.41,0,.01-.07.02-.1.02-.12-.48-1.65-.97-3.3-1.46-4.96ZM29.2,40.23s.06.07.09.1c2.66.22,5.23-1.33,5.48-3.29-1.17.14-3.5,1.17-4.48,2.03-.4.34-.72.77-1.08,1.16ZM20.81,40.33c-1.37-2.05-3.48-2.66-5.59-3.35.36,2.07,2.73,3.49,5.59,3.35Z"/>
  <path class="cls-1" d="M43.8,20c-.29.64-.79.86-1.48.82-.56-.04-1.12,0-1.59,0,0,.34.05.67-.01.98-.09.43-.41.69-.84.77-.42.08-.8-.05-1.04-.4-.45-.63-.87-1.27-1.28-1.92-.22-.35-.21-.73.01-1.08.39-.62.8-1.23,1.22-1.83.34-.48.93-.61,1.43-.34.48.26.68.81.5,1.35-.03.08-.06.16-.1.27.59,0,1.15.03,1.71,0,.68-.04,1.19.18,1.48.82v.59Z"/>
  <path class="cls-1" d="M9.31,18.61c-.02-.33-.1-.63-.05-.92.08-.45.4-.73.84-.82.42-.09.8.04,1.05.38.46.64.9,1.31,1.32,1.99.22.36.15.75-.08,1.11-.37.56-.74,1.12-1.12,1.68-.37.54-.94.69-1.47.42-.52-.27-.7-.84-.47-1.45.02-.04.03-.09.07-.18-.72,0-1.41,0-2.1,0-.52,0-.93-.35-1.06-.86-.11-.43.09-.95.5-1.17.21-.11.46-.16.7-.17.64-.02,1.29,0,1.88,0Z"/>
</svg>